<?xml version="1.0" standalone="no"?>
<!DOCTYPE svg PUBLIC "-//W3C//DTD SVG 20010904//EN"
 "http://www.w3.org/TR/2001/REC-SVG-20010904/DTD/svg10.dtd">
<svg version="1.0" xmlns="http://www.w3.org/2000/svg"
 width="200.000000pt" height="200.000000pt" viewBox="0 0 200.000000 200.000000"
 preserveAspectRatio="xMidYMid meet">

<g transform="translate(0.000000,200.000000) scale(0.100000,-0.100000)"
fill="#006080" stroke="none">
<path d="M0 1000 l0 -1000 1000 0 1000 0 0 1000 0 1000 -1000 0 -1000 0 0
-1000z m780 37 l135 173 168 0 c92 0 167 -3 167 -7 0 -5 -72 -92 -160 -195
l-160 -187 163 -223 c90 -123 167 -229 171 -235 6 -10 -30 -13 -167 -13 l-175
0 -139 204 -138 204 -3 -204 -2 -204 -145 0 -145 0 0 507 0 508 143 143 142
142 5 -392 5 -393 135 172z m870 468 l0 -146 -142 3 -143 3 -3 143 -3 142 146
0 145 0 0 -145z m0 -582 l0 -288 -137 -137 c-76 -76 -141 -138 -145 -138 -5 0
-8 191 -8 425 l0 425 145 0 145 0 0 -287z"/>
</g>
</svg>
